<svg xmlns="http://www.w3.org/2000/svg" width="350" height="245"><path fill="#BCC0C2" d="M0 0h350v245H0V0Z"/><path fill="#404447" d="M199 77c1.729-.043 3.458-.073 5.188-.098l2.917-.055C211.48 77.078 215.6 78.173 219 81c2.994 5.635 3.432 10.232 3.363 16.547l.002 2.706a738.44 738.44 0 0 1-.029 5.627c-.024 2.875-.02 5.749-.014 8.624-.005 1.827-.012 3.654-.021 5.48l.003 2.605-.03 2.418-.013 2.123C222 129 222 129 220 132c-5.403 1.801-9.909 1.151-15.246-.516l-2.705-.837L200 130c-.829-17.677-1.136-35.304-1-53Z"/><path fill="#484C4F" d="M112 79h9c-.913 15.74-2.007 31.282-4.643 46.841-.572 3.462-1.056 6.934-1.544 10.409l-.481 3.39L114 142l-2.938.813L108 144l-1 3-5 1-.55-5.691-.365-3.76-.801-8.295a7095.38 7095.38 0 0 0-1.937-19.848c-.28-2.813-.557-5.627-.834-8.441-.197-1.995-.398-3.99-.598-5.985l-.364-3.703-.323-3.242C96 86.01 95.96 83.032 96 80h10l2 36c1.612-9.335 1.612-9.335 2.633-18.64l.254-3.301.238-3.309.262-3.45c.209-2.766.413-5.533.613-8.3Z"/><path fill="#4C5154" d="M231 79c2.146-.027 4.292-.046 6.438-.063l3.62-.035C244 79 244 79 245 80c.205 1.53.348 3.069.465 4.608l.233 2.975.24 3.241.257 3.316c.273 3.515.54 7.031.805 10.547.266 3.499.534 6.997.805 10.495.169 2.18.335 4.36.497 6.54.371 4.815.84 9.521 1.698 14.278.065 2.124.086 4.25.063 6.375l-.028 3.21L250 148c-5.75-1.875-5.75-1.875-8-3-1.086-3.258-1.304-6.007-1.535-9.434l-.264-3.908-.13-2.043c-.131-2.014-.27-4.029-.409-6.043-.518-7.87-.787-15.685-.662-23.572h-2l.035 3.637c.081 12.486-.334 24.897-1.035 37.363-3.558-.61-6.683-1.578-10-3 .465-11.555 1.41-23.052 2.5-34.563l.2-2.106c.706-7.45 1.446-14.896 2.3-22.331Z"/><path fill="#2F3336" d="M175 77h14l.351 2.998c.43 3.664.866 7.328 1.303 10.991.189 1.587.376 3.174.562 4.761.267 2.28.539 4.558.811 6.836l.25 2.156c.424 3.749.424 3.749 1.723 7.258.233 2.88.42 5.741.563 8.625l.13 2.43c.107 1.981.207 3.963.307 5.945-6.625.125-6.625.125-10-1l-.184-3.727-.254-4.898-.119-2.45c-.18-3.422-.41-6.728-.974-10.112-.519-3.11-.567-6.037-.531-9.188l.027-3.21L183 92h-2l.035 2.177c.069 7.58-.346 15.026-1.035 22.573l-.29 3.305A2776.81 2776.81 0 0 1 179 128h-10c-.311-6.641.379-12.516 1.715-19.023C172.808 98.423 173.801 87.683 175 77Z"/><path fill="#45494C" d="M125 78h18v7h-8v16h7v7l-8 1v17l8-1v7l-1.793.367c-4.27.906-8.163 1.968-12.207 3.633h-3V78Z"/><path fill="#3B3F42" d="M148 77h10v44h7v7c-5 1-5 1-17 1V77Z"/><path fill="#989C9F" d="M157 138h5v22h3v5h-9l-1-12c-3.31 3.31-3.504 4.532-4 9h3v5l-9 2v-30h11l1-1Z"/><path fill="#3D4144" d="M112 79h9c-.24 3.91-.489 7.821-.745 11.731-.127 1.968-.248 3.937-.368 5.906C118.549 116.9 118.549 116.9 116 122c-3.063.625-3.063.625-6 1 .12-4.177.244-8.354.372-12.53.043-1.415.085-2.83.125-4.245.262-9.098.708-18.155 1.503-27.225Z"/><path fill="#6B6F73" d="M207.938 139.625c3.062.375 3.062.375 4.735 1.991 1.74 3.127 1.669 5.33 1.62 8.9l-.03 3.789c-.024 1.302-.05 2.604-.076 3.945l-.04 3.992c-.036 3.253-.085 6.505-.147 9.758-2.328.637-2.328.637-5 1-3.413-2.715-5.263-4.724-6-9-.22-3.706-.185-7.413-.188-11.125l-.037-3.074-.005-2.934-.013-2.684c.4-3.6 1.724-4.117 5.18-4.558Z"/><path fill="#35393D" d="M132 140h8c3.698 3.698 2.37 9.818 2.375 14.813l.074 3.603.012 3.479.025 3.182c-.622 3.74-1.793 5.276-4.486 7.923l-6 3v-36Z"/><path fill="#393D40" d="m190 132 9 1v4l-6 1 2 8 1-7h4v29l-4-1-2-9-1 7h-4l-1-30h2v-3Z"/><path fill="#9EA2A5" d="M158.813 33.625 160 35l1-4h9v3h-2v6c-6.4.492-6.4.492-9.438-2L157 36v4h-22v-8c5.75-.125 5.75-.125 8 1v-2c10.92-1.76 10.92-1.76 15.813 2.625Z"/><path fill="#2B2F33" d="M177 139h6l.402 3.21.536 4.165.263 2.117c.462 3.876.462 3.876 1.799 7.508.134 2.672.043 5.323 0 8h-4l-2-15-.438 5.313c-.259 3.149-.56 5.68-1.562 8.687h-4l3-24Z"/><path fill="#45494D" d="M145 139h9v4h-4v8h3v3h-4v10l4-1-1 4-7 2v-30Z"/><path fill="#A8ACAF" d="m209 86 4 1v37l-4 1V86Z"/><path fill="#363A3D" d="m190 132 9 1v4l-6 1 .5 1.563c.885 4.314.893 8.258-.5 12.437a163.05 163.05 0 0 0-.063 6.688l.028 3.574L193 165h-4l-1-30h2v-3Z"/><path fill="#616568" d="M132 140h8l1 2-1 2h-2v25h-3l-1-25-1 30 2 1-3 1v-36Z"/><path fill="#383C3F" d="m180 170-2 14h-3l-3-6-1 9h-3l-1-13c3-2 3-2 7-2l1 4 .375-2.438L176 171c2-1 2-1 4-1Z"/><path fill="#313538" d="M157 139h4v22h3v3h-7v-25Z"/><path fill="#7D8185" d="M121 30c1.836.038 3.67.155 5.5.313l3.031.238L132 31c1.478 2.957 1.06 5.742 1 9h-2v-2h-2v2h-2v-3l-4 1v2h-3c-.027-1.48-.046-2.958-.063-4.438l-.035-2.496C120 31 120 31 121 30Z"/><path fill="#9EA2A5" d="m142 143 3 1v25l2 1h-3l-1 2c-2.602 1.525-5.083 2.309-8 3l2.945-2.691c4.411-5.146 3.945-10.75 3.93-17.246l.063-3.518c.046-2.85.066-5.696.062-8.545Z"/><path fill="#909497" d="M181 92h2c1.537 11.735 2.27 23.166 2 35h-1l-.184-2.59-.254-3.347c-.08-1.103-.162-2.205-.246-3.34-.02-2.634-.02-2.634-1.316-3.723l-2 7h-1c-.107-6.602.288-13.001 1-19.563.095-.913.19-1.826.29-2.767.232-2.224.469-4.447.71-6.67Z"/><path fill="#787C7F" d="M135 32h11l-2 1v2l3 1-1 4h-11v-8Z"/><path fill="#9BA0A3" d="M161 31h9v3h-2v6c-6.4.492-6.4.492-9.438-2L157 36l-1 4v-7l4 2 1-4Z"/><path fill="#7F8387" d="M187 31v9l-7 1v-2h-2v-6c5.625-2 5.625-2 9-2Z"/><path fill="#A9ADB0" d="m108 94 1 2h2c-.557 9.344-1.17 18.675-2 28h-1c-.942-6.347-1.152-12.526-1.125-18.938l-.012-2.9a335852543.894 335852543.894 0 0 1 .008-5.248C107 95 107 95 108 94Z"/><path fill="#363A3D" d="m211 146 2 1v24l-3-2c-.356-2.23-.356-2.23-.328-4.973l.016-2.974.062-3.115.016-3.127c.08-7.657.08-7.657 1.234-8.811Z"/><path fill="#373B3E" d="M173 56h4l2 12h-3l-1-4-1 4h-3c.141-1.625.288-3.25.438-4.875.08-.905.162-1.81.246-2.742C172 58 172 58 173 56Z"/><path fill="#9A9EA1" d="M200 139h1l1 25h2l.875 2.313c1.088 2.837 1.088 2.837 3.125 5.687l-1.813-1.063c-2.295-1.27-2.295-1.27-5.187.063-2.688-.938-2.688-.938-5-2v-2h3l1-28Z"/><path fill="#3D4145" d="M140 142h2v26h-1l-1-16-1 12h-1v-20h2v-2Z"/><path fill="#3C4043" d="M149 78h1l.031 1.668c.109 5.743.223 11.486.341 17.228.044 2.142.085 4.284.125 6.425.058 3.083.122 6.166.187 9.25l.05 2.888c.102 4.61.338 9.005 1.266 13.541l-4-1 1-50Z"/><path fill="#ADB1B4" d="M154 150c2.351 3.527 2.214 5.029 2.125 9.188l-.055 3.292L156 165h6l-2 1-1 2h-2v-2l-3 1v-5h-3v-6l3-1v-5Z"/><path fill="#3B3F42" d="M180 146h4c1.405 6.12 2.233 11.717 2 18h-4c-.336-2.437-.669-4.875-1-7.313l-.29-2.091c-.39-2.892-.71-5.674-.71-8.596Z"/><path fill="#707477" d="M192 30h2c1.688 1.688 1.688 1.688 3 4-.41 4.41-.41 4.41-2 6-2.5.125-2.5.125-5 0-1-1-1-1-1.063-4.063L189 33l3-1v-2Z"/><path fill="#94989C" d="M178 169h3l-1 11h-1c-.125-7.75-.125-7.75 1-10l-2-1Zm-7 6c2.718 3.625 3.418 4.809 4 9h3l1-4v5l-3 1-2 2-3-1v-12Z"/><path fill="#4B4F52" d="M163 55h4v11h2v2h-6V55Z"/><path fill="#323639" d="M205 144h1c1.643 15.432 1.643 15.432 1 21l-2 2c-1.622-1.622-1.13-3.42-1.133-5.656l-.004-2.848.012-2.996-.012-2.996.004-2.848.004-2.63C204 145 204 145 205 144Z"/><path fill="#ADB1B4" d="m201 139 4 2-1 1a87.92 87.92 0 0 0-.316 4.91l-.127 2.998-.12 3.155-.13 3.166c-.107 2.59-.209 5.18-.307 7.771l-2 1v-26Z"/><path fill="#95999C" d="m190 132 9 1v4c-3.62 1.316-6.096 2-10 2l-1-4h2v-3Z"/><path fill="#303437" d="m147 154 2 1v9l4-1-1 4-6 1c-.027-1.77-.046-3.542-.063-5.313l-.035-2.988C146 157 146 157 147 154Z"/><path fill="#828689" d="M211 32c2.375-.125 2.375-.125 5 0l2 2c-.556 4.556-.556 4.556-2 6-1.666.04-3.334.043-5 0v-8Z"/><path fill="#5A5E61" d="M193 112h1l1 17c-7 0-7 0-10-1v-8h1v7l6-1 1-14Z"/><path fill="#8C9093" d="M180 148h1l1 16h-8l4-1 .184-3.027.254-3.91c.08-1.288.162-2.576.246-3.903C179 149 179 149 180 148Z"/><path fill="#6A6E71" d="M110 104h1c.332 8.863-.679 17.258-2 26l-2-1a590.393 590.393 0 0 1-.125-6.25l-.07-3.516c.19-3.156.694-4.55 2.195-7.234.445-2.126.445-2.126.625-4.25L110 104Z"/><path fill="#616568" d="M198 32c2 0 2 0 3.625 1.5L203 35l1-3h2v8c-3.875-1.875-3.875-1.875-5-3l-1 3h-2v-8Z"/><path fill="#484C4F" d="M175 77h14c.847 5.08 1.09 9.848 1 15l-3 1 1-15h-12l-1 2v-3Z"/><path fill="#2B2F32" d="M140 151h1v18h-3c.14-2.813.287-5.625.438-8.438l.119-2.431c.33-6.018.33-6.018 1.443-7.131Z"/><path fill="#A0A4A7" d="M237 100h2l1 20c-3.37-4.492-3.37-6.95-3.188-12.25l.042-2.258c.035-1.83.089-3.662.146-5.492Z"/><path fill="#4C5053" d="m180 170-2 14c-3.397-4.529-3.397-4.529-2.813-8.688l.293-2.386L176 171c2-1 2-1 4-1Z"/><path fill="#616568" d="M219 32h6l-3 2 2 1c.625 2.563.625 2.563 1 5h-6v-8Z"/><path fill="#9DA1A5" d="M132 31h8v1h-5v8h6v1h-10l2-1-1-9Z"/><path fill="#909497" d="m165 173 4 1h-2l1 2c.229 2.037.41 4.08.563 6.125l.253 3.32L169 188l-3 1-1-16Z"/><path fill="#676B6E" d="M248 130h1c1.326 5.967 1.088 11.926 1 18l-4-2v-2h2v-14Z"/><path fill="#5C6164" d="M148 32h5l-3 1v2h3l1 5h-6v-8Z"/><path fill="#94989B" d="M193 156c2.398 2.398 2.343 3.333 2.625 6.625l.227 2.477L196 167l-3 1c-2.188-1.438-2.188-1.438-4-3h4v-9Z"/><path fill="#84888C" d="M149 154h3l-1 8h3v5l-2-1v-2h-3v-10Z"/><path fill="#404447" d="M146 140h7v2h-3v9h-1v-7l-3 1v-5Z"/><path fill="#626669" d="m240 120 1 4h2l-1 18h-1l-1-22Z"/><path fill="#585C5F" d="m172 33 3 1c1.188 3.063 1.188 3.063 2 6h-7l2-7Z"/><path fill="#8C9194" d="m157 33-1 7h-2v-2l-4-1h3v-2h-3v-2c3.133-1.044 3.99-.934 7 0Z"/><path fill="#4A4E51" d="M161 32h2v7l-6-3-1 4v-7l4 2 1-3Z"/><path fill="#414548" d="m206 165 2 3a87.756 87.756 0 0 0 5 3l-1 2c-3.796-.542-5.472-2.201-8-5 1-2 1-2 2-3Z"/><path fill="#ADB1B5" d="M214 163h1c.276 1.6.52 3.205.75 4.813l.422 2.707C216 173 216 173 214.14 174.824 212 176 212 176 210 176v-2h-2l1-2h5v-9Z"/><path fill="#3E4245" d="M194 146h1c.207 5.789-.408 10.43-2 16h-1c-.204-5.738-.271-10.605 2-16Z"/><path fill="#464A4D" d="M205 140c2.875-.125 2.875-.125 6 0 2 2 2 2 2.125 4.625L213 147h-3v-3l-3-1h3v-2h-5v-1Z"/><path fill="#262A2D" d="m191 143 3 3c-.145 2.48-.145 2.48-.813 5.188l-.644 2.73L192 156h-1v-13Z"/><path fill="#363A3E" d="M149 116h1c.339 1.415.67 2.832 1 4.25l.563 2.39C152 125 152 125 152 129l-4-1 1-12Z"/><path fill="#373B3E" d="M105 80v11h-1v-8h-5v-2c2-1 2-1 6-1Z"/><path fill="#5A5F62" d="M211 32c2.375-.125 2.375-.125 5 0l2 2c-.375 2.625-.375 2.625-1 5l-2-1 1-4-5 2v-4Z"/><path fill="#909497" d="M193 139h3v12h-1l-2-12Z"/><path fill="#A4A8AB" d="M222 33h4l1 6-2 1v-2l-4-1h3v-2l-3-1 1-1Z"/><path fill="#575B5F" d="m143 32 3 1h-2v2l3 1-1 4-4-1h3l-1.563-1.25L142 36c.313-2.188.313-2.188 1-4Z"/><path fill="#3E4245" d="M191 134h7v3h-7v-3Z"/><path fill="#53575A" d="M127 33h2v3h3l-1 3-2-1v2h-2v-7Z"/><path fill="#9DA1A4" d="m170 32 2 3-3 6-2-1 1-6h2v-2Z"/><path fill="#525659" d="M165 32h5v2h-2v6h-2l-1-8Z"/><path fill="#6B6F72" d="m128 32 5 1v7l-2-1 1-3h-3l-1-4Z"/><path fill="#ADB1B4" d="M210 31h1c.313 2.75.313 2.75 0 6-2.5 2.375-2.5 2.375-5 4v-6l1 2 2-1c.656-2.527.656-2.527 1-5Z"/><path fill="#929699" d="m173 32 5 2v5l2 1h-3l-4-8Z"/><path fill="#6A6E71" d="M118 100h1c.286 8.571.286 8.571-2 12l-1-6h2v-6Z"/><path fill="#ADB1B4" d="M125 78v5h-3l-1-4c2-1 2-1 4-1Z"/><path fill="#A1A5A8" d="M171 180h2l1 6-3 1v-7Z"/></svg>